<?xml version="1.0" standalone="no"?>
<!DOCTYPE svg PUBLIC "-//W3C//DTD SVG 20010904//EN"
 "http://www.w3.org/TR/2001/REC-SVG-20010904/DTD/svg10.dtd">
<svg version="1.0" xmlns="http://www.w3.org/2000/svg"
 width="480.000000pt" height="480.000000pt" viewBox="0 0 480.000000 480.000000"
 preserveAspectRatio="xMidYMid meet">
<metadata>
Created by potrace 1.11, written by Peter Selinger 2001-2013
</metadata>
<g transform="translate(0.000000,480.000000) scale(0.100000,-0.100000)"
fill="#000000" stroke="none">
<path d="M1297 4083 c-4 -3 -7 -759 -7 -1680 l0 -1673 320 0 320 0 0 696 0
696 223 -5 c238 -5 290 -14 371 -61 55 -32 114 -98 154 -173 26 -50 150 -357
402 -996 l62 -157 370 0 c348 0 370 1 365 18 -13 46 -535 1268 -574 1345 -82
158 -167 239 -305 291 l-63 24 45 11 c291 75 476 204 575 400 62 123 77 191
82 356 4 124 1 167 -15 248 -29 139 -84 248 -174 343 -188 198 -468 289 -962
314 -216 11 -1179 14 -1189 3z m1193 -543 c257 -33 414 -121 470 -265 33 -85
33 -235 1 -318 -88 -226 -339 -317 -873 -317 l-158 0 0 462 0 461 238 -6 c130
-3 275 -11 322 -17z"/>
</g>
</svg>
